<svg xmlns="http://www.w3.org/2000/svg" xmlns:v="https://svgstorm.com"
viewBox = "0 0 112 113"
width="112"
height="113">
<g fill="None" fill-opacity="0.0" stroke="#000000" stroke-opacity="0.00" stroke-width="0.3"><path d="
M 0.00 113.00 
L 112.00 113.00
L 112.00 0.00
L 0.00 0.00
L 0.00 113.00
M 86.00 17.00 
C 84.65 20.12 78.08 26.72 75.00 28.00
C 71.18 31.21 57.04 24.02 51.00 25.00
C 44.59 26.04 35.30 31.39 31.00 37.00
C 28.55 40.20 25.65 46.93 25.00 51.00
C 22.96 63.81 32.70 71.87 21.75 81.75 C 10.80 91.63 6.26 82.18 3.22 70.78 C 0.18 59.37 2.18 46.23 6.00 36.00
C 8.28 29.89 11.01 26.11 15.00 21.00
C 20.32 14.20 26.88 9.19 35.00 6.00
C 42.82 2.93 49.22 2.00 58.00 2.00
C 65.39 2.00 91.08 5.23 86.00 17.00
M 109.00 68.00 
C 108.14 72.55 107.02 76.78 105.00 81.00
C 101.98 87.31 97.33 93.44 92.00 98.00
C 84.46 104.44 76.62 108.31 67.00 110.00
C 58.18 111.55 46.55 111.54 38.32 108.68 C 30.10 105.81 21.23 101.97 28.25 93.25 C 35.27 84.53 38.41 84.44 48.00 87.00
C 57.61 89.57 67.27 86.75 75.00 81.00
C 81.31 76.30 84.40 70.33 86.00 63.00
C 87.13 57.80 87.52 52.23 86.00 47.00
C 83.52 38.47 84.96 34.35 93.25 28.25 C 101.54 22.15 105.79 32.20 107.98 40.02 C 110.16 47.85 110.60 59.58 109.00 68.00
M 53.00 37.00 
C 53.00 47.00 53.00 57.00 53.00 67.00
C 49.69 67.78 48.15 66.46 47.00 64.00
C 28.75 78.87 26.65 33.33 47.00 46.00
C 46.57 41.13 46.11 34.88 53.00 37.00
M 65.00 64.00 
C 65.00 67.67 65.00 71.33 65.00 75.00
C 56.71 77.22 59.20 68.54 59.00 63.00 C 58.80 57.46 59.15 50.65 59.00 45.00
C 65.81 46.73 76.29 40.82 79.77 51.23 C 83.25 61.64 73.11 71.82 65.00 64.00 Z"/>
</g>
<g fill="None" fill-opacity="0.0" stroke="#00AEE7" stroke-opacity="0.97" stroke-width="0.3"><path d="
M 35.00 6.00 
C 33.43 8.25 39.23 13.62 41.75 15.25 C 44.28 16.88 48.36 24.03 51.00 25.00
C 57.04 24.02 71.18 31.21 75.00 28.00
C 75.25 27.79 75.00 27.00 75.00 27.00
C 76.17 25.46 77.98 24.02 78.00 22.00
C 71.01 15.82 64.12 8.96 58.00 2.00
C 49.22 2.00 42.82 2.93 35.00 6.00 Z"/>
</g>
<g fill="None" fill-opacity="0.0" stroke="#00B9E3" stroke-opacity="0.93" stroke-width="0.3"><path d="
M 75.00 27.00 
C 77.88 24.99 84.44 19.97 86.00 17.00
C 91.08 5.23 65.39 2.00 58.00 2.00
C 64.12 8.96 71.01 15.82 78.00 22.00
C 77.98 24.02 76.17 25.46 75.00 27.00 Z"/>
</g>
<g fill="None" fill-opacity="0.0" stroke="#009EED" stroke-opacity="0.95" stroke-width="0.3"><path d="
M 15.00 21.00 
C 17.25 20.93 21.59 27.20 23.25 28.75 C 24.90 30.31 30.75 34.69 31.00 37.00
C 35.30 31.39 44.59 26.04 51.00 25.00
C 48.36 24.03 44.28 16.88 41.75 15.25 C 39.23 13.62 33.43 8.25 35.00 6.00
C 26.88 9.19 20.32 14.20 15.00 21.00 Z"/>
</g>
<g fill="None" fill-opacity="0.0" stroke="#00BFEF" stroke-opacity="0.06" stroke-width="0.3"><path d="
M 75.00 27.00 
C 75.00 27.00 75.25 27.79 75.00 28.00
C 78.08 26.72 84.65 20.12 86.00 17.00
C 84.44 19.97 77.88 24.99 75.00 27.00 Z"/>
</g>
<g fill="None" fill-opacity="0.0" stroke="#008FF3" stroke-opacity="0.96" stroke-width="0.3"><path d="
M 6.00 36.00 
C 11.30 34.27 20.17 54.61 25.00 51.00
C 25.65 46.93 28.55 40.20 31.00 37.00
C 30.75 34.69 24.90 30.31 23.25 28.75 C 21.59 27.20 17.25 20.93 15.00 21.00
C 11.01 26.11 8.28 29.89 6.00 36.00 Z"/>
</g>
<g fill="None" fill-opacity="0.0" stroke="#00B4E5" stroke-opacity="0.96" stroke-width="0.3"><path d="
M 86.00 47.00 
C 91.23 53.04 102.83 60.51 109.00 68.00
C 110.60 59.58 110.16 47.85 107.98 40.02 C 105.79 32.20 101.54 22.15 93.25 28.25 C 84.96 34.35 83.52 38.47 86.00 47.00 Z"/>
</g>
<g fill="None" fill-opacity="0.0" stroke="#007FF9" stroke-opacity="0.96" stroke-width="0.3"><path d="
M 25.00 51.00 
C 20.17 54.61 11.30 34.27 6.00 36.00
C 2.18 46.23 0.18 59.37 3.22 70.78 C 6.26 82.18 10.80 91.63 21.75 81.75 C 32.70 71.87 22.96 63.81 25.00 51.00 Z"/>
</g>
<g fill="None" fill-opacity="0.0" stroke="#00A1EC" stroke-opacity="1.00" stroke-width="0.3"><path d="
M 53.00 37.00 
C 46.11 34.88 46.57 41.13 47.00 46.00
C 26.65 33.33 28.75 78.87 47.00 64.00
C 48.15 66.46 49.69 67.78 53.00 67.00
C 53.00 57.00 53.00 47.00 53.00 37.00
M 44.00 48.00 
C 49.63 49.35 47.79 64.65 41.32 62.66 C 34.85 60.67 37.33 46.40 44.00 48.00 Z"/>
</g>
<g fill="None" fill-opacity="0.0" stroke="#00A1EC" stroke-opacity="1.00" stroke-width="0.3"><path d="
M 65.00 64.00 
C 73.11 71.82 83.25 61.64 79.77 51.23 C 76.29 40.82 65.81 46.73 59.00 45.00
C 59.15 50.65 58.80 57.46 59.00 63.00 C 59.20 68.54 56.71 77.22 65.00 75.00
C 65.00 71.33 65.00 67.67 65.00 64.00
M 71.00 48.00 
C 76.82 49.49 74.65 65.08 68.32 62.66 C 61.99 60.25 64.40 46.32 71.00 48.00 Z"/>
</g>
<g fill="None" fill-opacity="0.0" stroke="#00A9E9" stroke-opacity="0.96" stroke-width="0.3"><path d="
M 86.00 47.00 
C 87.52 52.23 87.13 57.80 86.00 63.00
C 89.09 64.30 93.81 68.25 95.75 71.25 C 97.69 74.24 104.74 77.73 105.00 81.00
C 107.02 76.78 108.14 72.55 109.00 68.00
C 102.83 60.51 91.23 53.04 86.00 47.00 Z"/>
</g>
<g fill="None" fill-opacity="0.0" stroke="#000000" stroke-opacity="0.00" stroke-width="0.3"><path d="
M 44.00 48.00 
C 37.33 46.40 34.85 60.67 41.32 62.66 C 47.79 64.65 49.63 49.35 44.00 48.00 Z"/>
</g>
<g fill="None" fill-opacity="0.0" stroke="#000000" stroke-opacity="0.00" stroke-width="0.3"><path d="
M 71.00 48.00 
C 64.40 46.32 61.99 60.25 68.32 62.66 C 74.65 65.08 76.82 49.49 71.00 48.00 Z"/>
</g>
<g fill="None" fill-opacity="0.0" stroke="#009DEE" stroke-opacity="0.96" stroke-width="0.3"><path d="
M 75.00 81.00 
C 77.29 83.36 80.49 88.05 83.25 89.75 C 86.01 91.45 89.11 97.99 92.00 98.00
C 97.33 93.44 101.98 87.31 105.00 81.00
C 104.74 77.73 97.69 74.24 95.75 71.25 C 93.81 68.25 89.09 64.30 86.00 63.00
C 84.40 70.33 81.31 76.30 75.00 81.00 Z"/>
</g>
<g fill="None" fill-opacity="0.0" stroke="#008CF4" stroke-opacity="0.96" stroke-width="0.3"><path d="
M 48.00 87.00 
C 50.20 88.84 55.29 96.65 57.25 98.75 C 59.21 100.86 68.30 107.74 67.00 110.00
C 76.62 108.31 84.46 104.44 92.00 98.00
C 89.11 97.99 86.01 91.45 83.25 89.75 C 80.49 88.05 77.29 83.36 75.00 81.00
C 67.27 86.75 57.61 89.57 48.00 87.00 Z"/>
</g>
<g fill="None" fill-opacity="0.0" stroke="#007CFA" stroke-opacity="0.95" stroke-width="0.3"><path d="
M 67.00 110.00 
C 68.30 107.74 59.21 100.86 57.25 98.75 C 55.29 96.65 50.20 88.84 48.00 87.00
C 38.41 84.44 35.27 84.53 28.25 93.25 C 21.23 101.97 30.10 105.81 38.32 108.68 C 46.55 111.54 58.18 111.55 67.00 110.00 Z"/>
</g>
<g fill="#000000" fill-opacity="0.00" stroke="None">
<path d="
M 0.00 113.00 
L 112.00 113.00
L 112.00 0.00
L 0.00 0.00
L 0.00 113.00
M 86.00 17.00 
C 84.65 20.12 78.08 26.72 75.00 28.00
C 71.18 31.21 57.04 24.02 51.00 25.00
C 44.59 26.04 35.30 31.39 31.00 37.00
C 28.55 40.20 25.65 46.93 25.00 51.00
C 22.96 63.81 32.70 71.87 21.75 81.75 C 10.80 91.63 6.26 82.18 3.22 70.78 C 0.18 59.37 2.18 46.23 6.00 36.00
C 8.28 29.89 11.01 26.11 15.00 21.00
C 20.32 14.20 26.88 9.19 35.00 6.00
C 42.82 2.93 49.22 2.00 58.00 2.00
C 65.39 2.00 91.08 5.23 86.00 17.00
M 109.00 68.00 
C 108.14 72.55 107.02 76.78 105.00 81.00
C 101.98 87.31 97.33 93.44 92.00 98.00
C 84.46 104.44 76.62 108.31 67.00 110.00
C 58.18 111.55 46.55 111.54 38.32 108.68 C 30.10 105.81 21.23 101.97 28.25 93.25 C 35.27 84.53 38.41 84.44 48.00 87.00
C 57.61 89.57 67.27 86.75 75.00 81.00
C 81.31 76.30 84.40 70.33 86.00 63.00
C 87.13 57.80 87.52 52.23 86.00 47.00
C 83.52 38.47 84.96 34.35 93.25 28.25 C 101.54 22.15 105.79 32.20 107.98 40.02 C 110.16 47.85 110.60 59.58 109.00 68.00
M 53.00 37.00 
C 53.00 47.00 53.00 57.00 53.00 67.00
C 49.69 67.78 48.15 66.46 47.00 64.00
C 28.75 78.87 26.65 33.33 47.00 46.00
C 46.57 41.13 46.11 34.88 53.00 37.00
M 65.00 64.00 
C 65.00 67.67 65.00 71.33 65.00 75.00
C 56.71 77.22 59.20 68.54 59.00 63.00 C 58.80 57.46 59.15 50.65 59.00 45.00
C 65.81 46.73 76.29 40.82 79.77 51.23 C 83.25 61.64 73.11 71.82 65.00 64.00 Z"/>
</g>
<g fill="#00AEE7" fill-opacity="0.97" stroke="None">
<path d="
M 35.00 6.00 
C 33.43 8.25 39.23 13.62 41.75 15.25 C 44.28 16.88 48.36 24.03 51.00 25.00
C 57.04 24.02 71.18 31.21 75.00 28.00
C 75.25 27.79 75.00 27.00 75.00 27.00
C 76.17 25.46 77.98 24.02 78.00 22.00
C 71.01 15.82 64.12 8.96 58.00 2.00
C 49.22 2.00 42.82 2.93 35.00 6.00 Z"/>
</g>
<g fill="#00B9E3" fill-opacity="0.93" stroke="None">
<path d="
M 75.00 27.00 
C 77.88 24.99 84.44 19.97 86.00 17.00
C 91.08 5.23 65.39 2.00 58.00 2.00
C 64.12 8.96 71.01 15.82 78.00 22.00
C 77.98 24.02 76.17 25.46 75.00 27.00 Z"/>
</g>
<g fill="#009EED" fill-opacity="0.95" stroke="None">
<path d="
M 15.00 21.00 
C 17.25 20.93 21.59 27.20 23.25 28.75 C 24.90 30.31 30.75 34.69 31.00 37.00
C 35.30 31.39 44.59 26.04 51.00 25.00
C 48.36 24.03 44.28 16.88 41.75 15.25 C 39.23 13.62 33.43 8.25 35.00 6.00
C 26.88 9.19 20.32 14.20 15.00 21.00 Z"/>
</g>
<g fill="#00BFEF" fill-opacity="0.06" stroke="None">
<path d="
M 75.00 27.00 
C 75.00 27.00 75.25 27.79 75.00 28.00
C 78.08 26.72 84.65 20.12 86.00 17.00
C 84.44 19.97 77.88 24.99 75.00 27.00 Z"/>
</g>
<g fill="#008FF3" fill-opacity="0.96" stroke="None">
<path d="
M 6.00 36.00 
C 11.30 34.27 20.17 54.61 25.00 51.00
C 25.65 46.93 28.55 40.20 31.00 37.00
C 30.75 34.69 24.90 30.31 23.25 28.75 C 21.59 27.20 17.25 20.93 15.00 21.00
C 11.01 26.11 8.28 29.89 6.00 36.00 Z"/>
</g>
<g fill="#00B4E5" fill-opacity="0.96" stroke="None">
<path d="
M 86.00 47.00 
C 91.23 53.04 102.83 60.51 109.00 68.00
C 110.60 59.58 110.16 47.85 107.98 40.02 C 105.79 32.20 101.54 22.15 93.25 28.25 C 84.96 34.35 83.52 38.47 86.00 47.00 Z"/>
</g>
<g fill="#007FF9" fill-opacity="0.96" stroke="None">
<path d="
M 25.00 51.00 
C 20.17 54.61 11.30 34.27 6.00 36.00
C 2.18 46.23 0.18 59.37 3.22 70.78 C 6.26 82.18 10.80 91.63 21.75 81.75 C 32.70 71.87 22.96 63.81 25.00 51.00 Z"/>
</g>
<g fill="#00A1EC" fill-opacity="1.00" stroke="None">
<path d="
M 53.00 37.00 
C 46.11 34.88 46.57 41.13 47.00 46.00
C 26.65 33.33 28.75 78.87 47.00 64.00
C 48.15 66.46 49.69 67.78 53.00 67.00
C 53.00 57.00 53.00 47.00 53.00 37.00
M 44.00 48.00 
C 49.63 49.35 47.79 64.65 41.32 62.66 C 34.85 60.67 37.33 46.40 44.00 48.00 Z"/>
</g>
<g fill="#00A1EC" fill-opacity="1.00" stroke="None">
<path d="
M 65.00 64.00 
C 73.11 71.82 83.25 61.64 79.77 51.23 C 76.29 40.82 65.81 46.73 59.00 45.00
C 59.15 50.65 58.80 57.46 59.00 63.00 C 59.20 68.54 56.71 77.22 65.00 75.00
C 65.00 71.33 65.00 67.67 65.00 64.00
M 71.00 48.00 
C 76.82 49.49 74.65 65.08 68.32 62.66 C 61.99 60.25 64.40 46.32 71.00 48.00 Z"/>
</g>
<g fill="#00A9E9" fill-opacity="0.96" stroke="None">
<path d="
M 86.00 47.00 
C 87.52 52.23 87.13 57.80 86.00 63.00
C 89.09 64.30 93.81 68.25 95.75 71.25 C 97.69 74.24 104.74 77.73 105.00 81.00
C 107.02 76.78 108.14 72.55 109.00 68.00
C 102.83 60.51 91.23 53.04 86.00 47.00 Z"/>
</g>
<g fill="#000000" fill-opacity="0.00" stroke="None">
<path d="
M 44.00 48.00 
C 37.33 46.40 34.85 60.67 41.32 62.66 C 47.79 64.65 49.63 49.35 44.00 48.00 Z"/>
</g>
<g fill="#000000" fill-opacity="0.00" stroke="None">
<path d="
M 71.00 48.00 
C 64.40 46.32 61.99 60.25 68.32 62.66 C 74.65 65.08 76.82 49.49 71.00 48.00 Z"/>
</g>
<g fill="#009DEE" fill-opacity="0.96" stroke="None">
<path d="
M 75.00 81.00 
C 77.29 83.36 80.49 88.05 83.25 89.75 C 86.01 91.45 89.11 97.99 92.00 98.00
C 97.33 93.44 101.98 87.31 105.00 81.00
C 104.74 77.73 97.69 74.24 95.75 71.25 C 93.81 68.25 89.09 64.30 86.00 63.00
C 84.40 70.33 81.31 76.30 75.00 81.00 Z"/>
</g>
<g fill="#008CF4" fill-opacity="0.96" stroke="None">
<path d="
M 48.00 87.00 
C 50.20 88.84 55.29 96.65 57.25 98.75 C 59.21 100.86 68.30 107.74 67.00 110.00
C 76.62 108.31 84.46 104.44 92.00 98.00
C 89.11 97.99 86.01 91.45 83.25 89.75 C 80.49 88.05 77.29 83.36 75.00 81.00
C 67.27 86.75 57.61 89.57 48.00 87.00 Z"/>
</g>
<g fill="#007CFA" fill-opacity="0.95" stroke="None">
<path d="
M 67.00 110.00 
C 68.30 107.74 59.21 100.86 57.25 98.75 C 55.29 96.65 50.20 88.84 48.00 87.00
C 38.41 84.44 35.27 84.53 28.25 93.25 C 21.23 101.97 30.10 105.81 38.32 108.68 C 46.55 111.54 58.18 111.55 67.00 110.00 Z"/>
</g>
</svg>